<svg viewBox="0 0 710.835 745.631" xmlns="http://www.w3.org/2000/svg" xmlns:xlink="http://www.w3.org/1999/xlink" width="710.834961" height="745.630859" fill="none" customFrame="#000000">
	<defs>
		<linearGradient id="paint_linear_2" x1="710.999878" x2="355.000275" y1="372.999939" y2="746.000122" gradientUnits="userSpaceOnUse">
			<stop stop-color="rgb(93,157,246)" offset="0" stop-opacity="1" />
			<stop stop-color="rgb(129,131,233)" offset="1" stop-opacity="1" />
		</linearGradient>
	</defs>
	<path id="bule" d="M372.815 0C515.213 0 638.963 79.8331 701.752 197.184L700.802 197.735C707.219 210.383 710.835 224.691 710.835 239.845C710.835 291.32 669.106 333.049 617.631 333.049C578.177 333.049 544.449 308.534 530.847 273.906C497.884 221.35 439.43 186.408 372.815 186.408C269.865 186.408 186.408 269.865 186.408 372.815C186.408 475.766 269.865 559.223 372.815 559.223C437.716 559.223 494.87 526.056 528.252 475.748L528.777 476.051C545.277 449.864 574.451 432.466 607.689 432.466C659.165 432.466 700.893 474.195 700.893 525.67C700.893 548.775 692.486 569.917 678.563 586.203C611.167 682.591 499.353 745.631 372.815 745.631C166.915 745.631 0 578.716 0 372.815C0 166.915 166.915 0 372.815 0Z" fill="url(#paint_linear_2)" fill-rule="evenodd" />
</svg>
