<svg viewBox="0 0 710.835 745.631" xmlns="http://www.w3.org/2000/svg" xmlns:xlink="http://www.w3.org/1999/xlink" width="710.834961" height="745.630859" fill="none" customFrame="#000000">
	<defs>
		<linearGradient id="paint_linear_1" x1="711" x2="0.698364258" y1="373" y2="395.272491" gradientUnits="userSpaceOnUse">
			<stop stop-color="rgb(139,88,244)" offset="0" stop-opacity="1" />
			<stop stop-color="rgb(248,83,116)" offset="1" stop-opacity="1" />
		</linearGradient>
	</defs>
	<path id="red" d="M372.815 0C515.213 0 638.963 79.833 701.752 197.184L700.802 197.735C707.219 210.383 710.835 224.691 710.835 239.845C710.835 291.32 669.106 333.049 617.631 333.049C578.177 333.049 544.449 308.534 530.847 273.906C497.884 221.35 439.43 186.408 372.815 186.408C269.865 186.408 186.408 269.865 186.408 372.815C186.408 463.592 251.295 539.214 337.218 555.828C381.298 582.017 451.256 598.107 546.945 598.107C620.324 598.107 666.145 585.266 693.871 561.226C690.092 570.375 684.899 578.792 678.563 586.203C611.167 682.591 499.353 745.631 372.815 745.631C166.915 745.631 0 578.716 0 372.815C0 166.915 166.915 0 372.815 0Z" fill="url(#paint_linear_1)" fill-rule="evenodd" />
</svg>
